<?xml version="1.0" encoding="UTF-8"?>
<svg id="Layer_2" data-name="Layer 2" xmlns="http://www.w3.org/2000/svg" viewBox="0 0 392 466.02">
  <g id="Layer_1-2" data-name="Layer 1">
    <path d="m196,0c-34.02,0-61.6,27.58-61.6,61.6s27.58,61.6,61.6,61.6,61.6-27.58,61.6-61.6S230.02,0,196,0ZM0,89.6v280l187.6,96.43V186.02L0,89.6Zm392,0l-187.6,96.43v280l187.6-96.43V89.6Zm-39.2,84v58.8l-112,58.8v-58.8l112-58.8Zm4.55,97.83c.29-.02.58-.02.88,0,3.95-.14,7.47,2.5,8.44,6.34.97,3.84-.87,7.83-4.42,9.59l-117.6,61.6c-1.99,1.24-4.4,1.59-6.66.96-2.26-.62-4.15-2.16-5.23-4.24-1.08-2.08-1.24-4.52-.44-6.72.8-2.2,2.48-3.97,4.64-4.88l117.6-61.6c.86-.51,1.81-.87,2.8-1.05h0Zm-16.8,56c.29-.02.58-.02.88,0,3.99-.23,7.59,2.38,8.61,6.24,1.02,3.87-.82,7.92-4.41,9.68l-72.8,39.2c-1.97,1.08-4.3,1.33-6.46.7-2.16-.64-3.97-2.11-5.05-4.09-1.07-1.98-1.31-4.3-.66-6.46.65-2.16,2.13-3.96,4.11-5.02l72.8-39.2c.92-.53,1.93-.89,2.98-1.05h0Z"/>
  </g>
</svg>