<?xml version="1.0" encoding="utf-8"?>
<!-- Generator: Adobe Illustrator 27.0.0, SVG Export Plug-In . SVG Version: 6.00 Build 0)  -->
<svg version="1.1" id="Calque_1" xmlns="http://www.w3.org/2000/svg" xmlns:xlink="http://www.w3.org/1999/xlink" x="0px" y="0px"
	 viewBox="0 0 2500 2500" style="enable-background:new 0 0 2500 2500;" xml:space="preserve">
<style type="text/css">
	.st0{fill:#FFFFFF;}
</style>
<path id="behance" class="st0" d="M842.1,620.3c59.9,0,114.6,5.3,164.1,15.9c49.5,10.6,91.7,27.9,126.9,52
	c35.2,24.1,62.6,56.1,82,96.2s29.1,89.4,29.1,148.2c0,63.5-14.5,116.4-43.2,158.7s-71.5,77-127.8,104
	c77.6,22.3,135.5,61.5,173.7,117.3c38.2,55.8,57.4,123.2,57.4,202c0,63.5-12.3,118.5-37,165c-24.7,46.5-57.9,84.4-99.7,113.7
	c-41.8,29.5-89.4,51.1-142.8,65.3c-53.8,14.1-109.3,21.2-164.9,21.1H249.5V620.3H842.1z M806.9,1130c49.4,0,89.9-11.8,121.7-35.2
	c31.8-23.6,47.7-61.7,47.6-114.6c0-29.3-5.3-53.5-15.9-72.3s-24.7-33.6-42.4-44.1c-17.7-10.6-37.9-17.9-60.8-22
	c-23.6-4.1-47.5-6.2-71.5-6.1H526.5v294.6L806.9,1130L806.9,1130z M822.8,1664.4c26.1,0.1,52.1-2.6,77.6-7.9
	c24.7-5.3,46.5-14.1,65.3-26.5c18.8-12.3,33.8-29.1,45-50.2c11.1-21.1,16.8-48.2,16.8-81.1c0-64.6-18.2-110.8-54.7-138.4
	c-36.5-27.7-84.7-41.5-144.6-41.5H526.5v345.7L822.8,1664.4L822.8,1664.4z M1652.7,1637.9c37.6,36.5,91.7,54.7,162.3,54.7
	c50.6,0,94-12.7,130.5-37.9c36.5-25.2,58.8-52,67-80.3H2233c-35.2,109.4-89.4,187.5-162.3,234.6c-72.9,47-161.1,70.6-264.6,70.6
	c-71.7,0-136.4-11.4-194-34.3c-57.6-22.9-106.4-55.6-146.4-97.9s-70.9-92.8-92.6-151.6c-21.7-58.8-32.6-123.5-32.6-194
	c0-68.1,11.1-131.6,33.5-190.4c22.3-58.8,54.1-109.6,95.3-152.5c41.1-42.9,90.3-76.7,147.3-101.4s120.3-37,189.6-37
	c77.6,0,145.2,15,202.9,45c57.6,30,104.9,70.3,142,120.8c37,50.6,63.8,108.2,80.3,172.9c16.5,64.7,22.3,132.3,17.7,202.9h-657.9
	C1594.6,1542.7,1615.1,1601.5,1652.7,1637.9L1652.7,1637.9z M1935.8,1158.2c-30-32.9-75.6-49.4-136.7-49.4c-40,0-73.3,6.8-99.6,20.2
	c-26.5,13.6-47.6,30.2-63.5,50.2s-27,41.1-33.5,63.5s-10.3,42.4-11.4,59.9h407.4C1986.6,1239.4,1965.7,1191.1,1935.8,1158.2
	L1935.8,1158.2z M1548.2,684.2h509v141.2h-509V684.2z"/>
</svg>
