<?xml version="1.0" encoding="utf-8"?>
<!-- Generator: Adobe Illustrator 27.0.0, SVG Export Plug-In . SVG Version: 6.00 Build 0)  -->
<svg version="1.1" id="Capa_1" xmlns="http://www.w3.org/2000/svg" xmlns:xlink="http://www.w3.org/1999/xlink" x="0px"
	y="0px" viewBox="0 0 800 800" style="enable-background:new 0 0 800 800;" xml:space="preserve">
	<style type="text/css">
		.st0 {
			fill: #FFFFFF;
		}
	</style>
	<g>
		<path class="st0" d="M798.1,311.2L798.1,311.2l-0.2-2.1V309v-0.1l-0.9-7.7c-0.2-1.5-0.4-3.3-0.6-5.3l-0.2-1.6h-0.4
		c-9.8-55.5-36.6-108.2-78.1-153.1c-41.3-44.8-95-80.1-155.3-102.2C510.8,20.1,456,10.5,399.6,10.5c-76.1,0-150.1,17.9-213.8,51.8
		C62.8,127.6-9.7,247.7,1,368.2c5.5,62.4,30,121.7,70.6,171.6c38.3,47,90.1,84.9,149.7,109.7c36.7,15.2,73,22.4,111.4,30l4.5,0.9
		c10.6,2.1,13.4,5,14.2,6.1c1.4,2.1,0.6,6.3,0.1,8.6c-0.5,2.1-1,4.2-1.5,6.3c-4.1,16.8-8.4,34.2-5,53.4c3.9,22,17.6,34.7,37.8,34.7
		l0,0c21.7,0,46.3-14.5,62.7-24.2l2.2-1.3c38.9-22.9,75.6-48.7,103.3-68.6c60.4-43.6,128.9-93,180.3-156.9
		C782.9,474.1,807.2,391.4,798.1,311.2z M249.1,433.2h-69c-10.4,0-18.9-8.5-18.9-18.9V269.4c0-10.4,8.5-18.9,18.9-18.9
		S199,259,199,269.4v126h50.1c10.4,0,18.9,8.5,18.9,18.9C268,424.7,259.6,433.2,249.1,433.2z M321.1,413.8
		c0,10.4-8.5,18.9-18.9,18.9s-18.9-8.5-18.9-18.9V268.9c0-10.4,8.5-18.9,18.9-18.9s18.9,8.5,18.9,18.9V413.8z M491.8,413.8
		c0,8.2-5.3,15.4-13.1,18c-1.9,0.6-3.9,0.9-5.8,0.9c-5.9,0-11.7-2.8-15.3-7.8l-68-93.7v82.6c0,10.4-8.5,18.9-18.9,18.9
		s-18.9-8.5-18.9-18.9V273.1c0-8.2,5.3-15.4,13.1-18c7.8-2.5,16.3,0.2,21.1,6.9l68,93.7V269c0-10.4,8.5-18.9,18.9-18.9
		s18.9,8.5,18.9,18.9L491.8,413.8L491.8,413.8z M629.4,429.7H536c-10.4,0-18.9-8.5-18.9-18.9v-72.4V266c0-10.4,8.5-18.9,18.9-18.9
		h90.6c10.4,0,18.9,8.5,18.9,18.9s-8.5,18.9-18.9,18.9h-71.7v34.7H613c10.4,0,18.9,8.5,18.9,18.9s-8.5,18.9-18.9,18.9h-58.2v34.7
		h74.6c10.4,0,18.9,8.5,18.9,18.9C648.3,421.2,639.9,429.7,629.4,429.7z" />
	</g>
</svg>