<?xml version="1.0" encoding="UTF-8"?>
<svg id="Layer_2" data-name="Layer 2" xmlns="http://www.w3.org/2000/svg" viewBox="0 0 299.9 449.9">
  <defs>
    <style>
      .cls-1,
      .cls-2 {
        fill: #fff;
      }

      .cls-2 {
        fill-rule: evenodd;
      }
    </style>
  </defs>
  <g id="Layer_1-2" data-name="Layer 1">
    <g>
      <path class="cls-2"
        d="M0,56.2C0,25.1,25.2,0,56.2,0H243.7c31.1,0,56.2,25.2,56.2,56.2V393.7c0,31.1-25.2,56.2-56.2,56.2H56.2c-31.1,0-56.2-25.2-56.2-56.2V56.2Zm56.2-18.8c-10.4,0-18.8,8.4-18.8,18.8V393.7c0,10.4,8.4,18.8,18.8,18.8H243.7c10.4,0,18.8-8.4,18.8-18.8V56.2c0-10.4-8.4-18.8-18.8-18.8H56.2Z" />
      <path class="cls-1"
        d="M93.7,93.7c0-10.4,8.4-18.8,18.7-18.8h75c10.4,0,18.8,8.4,18.8,18.8s-8.4,18.8-18.8,18.8H112.4c-10.3-.1-18.7-8.5-18.7-18.8Z" />
    </g>
  </g>
</svg>