<svg width="143" height="34" viewBox="0 0 143 34" fill="none" xmlns="http://www.w3.org/2000/svg">
<path d="M46.0027 22.8461V10.2022H50.8435C51.6022 10.2022 52.2765 10.3527 52.8666 10.6537C53.4687 10.9427 53.9443 11.3582 54.2935 11.9001C54.6427 12.442 54.8174 13.0982 54.8174 13.8689V14.1037C54.8174 14.8624 54.6367 15.5187 54.2755 16.0726C53.9263 16.6145 53.4506 17.0299 52.8485 17.3189C52.2464 17.6079 51.5781 17.7524 50.8435 17.7524H47.52V22.8461H46.0027ZM47.52 16.3796H50.681C51.4878 16.3796 52.126 16.181 52.5956 15.7836C53.0653 15.3742 53.3001 14.8022 53.3001 14.0676V13.887C53.3001 13.1524 53.0653 12.5865 52.5956 12.1891C52.138 11.7797 51.4998 11.5749 50.681 11.5749H47.52V16.3796ZM56.851 22.8461V10.2022H64.4915V11.5749H58.3683V15.8197H64.0038V17.1925H58.3683V22.8461H56.851ZM70.8894 23.099C69.9502 23.099 69.1193 22.9063 68.3968 22.521C67.6863 22.1236 67.1264 21.5456 66.7169 20.787C66.3196 20.0283 66.1209 19.0891 66.1209 17.9692V15.0791C66.1209 13.4053 66.5664 12.1349 67.4575 11.2679C68.3486 10.3888 69.5468 9.94929 71.052 9.94929C72.5452 9.94929 73.6832 10.3587 74.4659 11.1776C75.2486 11.9964 75.64 13.0922 75.64 14.465V14.5553H74.1408V14.4289C74.1408 13.8268 74.0324 13.2909 73.8156 12.8213C73.5989 12.3516 73.2617 11.9844 72.8041 11.7194C72.3465 11.4425 71.7625 11.304 71.052 11.304C69.9803 11.304 69.1434 11.6351 68.5413 12.2975C67.9392 12.9477 67.6381 13.8629 67.6381 15.043V18.0053C67.6381 19.1854 67.9392 20.1066 68.5413 20.7689C69.1434 21.4192 69.9863 21.7443 71.0701 21.7443C72.1298 21.7443 72.9065 21.4433 73.4002 20.8412C73.9059 20.2391 74.1588 19.4383 74.1588 18.4388V18.1317H70.3295V16.8312H75.64V22.8461H74.2672V21.4734H74.0143C73.8819 21.7383 73.6952 21.9972 73.4544 22.2501C73.2135 22.5029 72.8884 22.7077 72.479 22.8642C72.0696 23.0207 71.5397 23.099 70.8894 23.099ZM87.6155 23.099C86.1102 23.099 84.9121 22.6655 84.021 21.7985C83.1299 20.9194 82.6843 19.643 82.6843 17.9692V15.0791C82.6843 13.4053 83.1299 12.1349 84.021 11.2679C84.9121 10.3888 86.1102 9.94929 87.6155 9.94929C89.1087 9.94929 90.2526 10.3647 91.0474 11.1956C91.8542 12.0265 92.2576 13.1645 92.2576 14.6095V14.6998H90.7584V14.5553C90.7584 13.604 90.4995 12.8273 89.9817 12.2252C89.4759 11.6111 88.6872 11.304 87.6155 11.304C86.5437 11.304 85.7068 11.6351 85.1047 12.2975C84.5026 12.9477 84.2016 13.8629 84.2016 15.043V18.0053C84.2016 19.1854 84.5026 20.1066 85.1047 20.7689C85.7068 21.4192 86.5437 21.7443 87.6155 21.7443C88.6872 21.7443 89.4759 21.4433 89.9817 20.8412C90.4995 20.227 90.7584 19.4443 90.7584 18.493V18.204H92.2576V18.4388C92.2576 19.8838 91.8542 21.0218 91.0474 21.8527C90.2526 22.6836 89.1087 23.099 87.6155 23.099ZM97.3983 23.099C96.7842 23.099 96.2242 22.9906 95.7185 22.7739C95.2127 22.5571 94.8153 22.244 94.5263 21.8346C94.2373 21.4252 94.0928 20.9255 94.0928 20.3354C94.0928 19.7333 94.2373 19.2396 94.5263 18.8543C94.8153 18.4569 95.2127 18.1618 95.7185 17.9692C96.2242 17.7645 96.7902 17.6621 97.4164 17.6621H100.397V17.0118C100.397 16.3857 100.21 15.892 99.8368 15.5307C99.4755 15.1694 98.9337 14.9888 98.2111 14.9888C97.5007 14.9888 96.9468 15.1634 96.5494 15.5126C96.152 15.8498 95.881 16.3074 95.7365 16.8854L94.3999 16.4519C94.5444 15.9582 94.7732 15.5126 95.0863 15.1152C95.3994 14.7058 95.8148 14.3807 96.3326 14.1399C96.8625 13.887 97.4947 13.7605 98.2292 13.7605C99.3611 13.7605 100.24 14.0556 100.866 14.6456C101.493 15.2236 101.806 16.0425 101.806 17.1022V21.094C101.806 21.4553 101.974 21.6359 102.311 21.6359H103.124V22.8461H101.878C101.481 22.8461 101.161 22.7378 100.921 22.521C100.68 22.2922 100.559 21.9912 100.559 21.6179V21.5275H100.343C100.21 21.7563 100.029 21.9972 99.8007 22.2501C99.5839 22.4909 99.2829 22.6896 98.8975 22.8461C98.5122 23.0147 98.0125 23.099 97.3983 23.099ZM97.5609 21.8707C98.4038 21.8707 99.0842 21.6239 99.602 21.1302C100.132 20.6244 100.397 19.92 100.397 19.0168V18.8181H97.4706C96.9046 18.8181 96.435 18.9446 96.0617 19.1974C95.7004 19.4383 95.5198 19.8056 95.5198 20.2993C95.5198 20.793 95.7064 21.1783 96.0797 21.4553C96.4651 21.7323 96.9588 21.8707 97.5609 21.8707ZM105.079 26.4587V14.0134H106.469V15.4765H106.722C106.951 15.031 107.318 14.6336 107.824 14.2844C108.342 13.9351 109.058 13.7605 109.974 13.7605C110.732 13.7605 111.425 13.9472 112.051 14.3205C112.689 14.6817 113.195 15.1995 113.568 15.8739C113.953 16.5482 114.146 17.3611 114.146 18.3124V18.5472C114.146 19.4865 113.959 20.2993 113.586 20.9857C113.213 21.6721 112.707 22.1959 112.069 22.5571C111.443 22.9184 110.744 23.099 109.974 23.099C109.359 23.099 108.836 23.0147 108.402 22.8461C107.981 22.6896 107.637 22.4849 107.373 22.232C107.108 21.9791 106.903 21.7202 106.758 21.4553H106.506V26.4587H105.079ZM109.594 21.8346C110.509 21.8346 111.25 21.5456 111.816 20.9676C112.394 20.3775 112.683 19.5587 112.683 18.5111V18.3485C112.683 17.3009 112.394 16.488 111.816 15.91C111.25 15.32 110.509 15.0249 109.594 15.0249C108.691 15.0249 107.945 15.32 107.354 15.91C106.776 16.488 106.487 17.3009 106.487 18.3485V18.5111C106.487 19.5587 106.776 20.3775 107.354 20.9676C107.945 21.5456 108.691 21.8346 109.594 21.8346ZM116.703 22.8461V14.0134H118.13V22.8461H116.703ZM117.425 12.6406C117.112 12.6406 116.847 12.5383 116.631 12.3336C116.426 12.1289 116.324 11.87 116.324 11.5569C116.324 11.2317 116.426 10.9668 116.631 10.7621C116.847 10.5574 117.112 10.455 117.425 10.455C117.739 10.455 117.997 10.5574 118.202 10.7621C118.407 10.9668 118.509 11.2317 118.509 11.5569C118.509 11.87 118.407 12.1289 118.202 12.3336C117.997 12.5383 117.739 12.6406 117.425 12.6406ZM124.382 22.8461C123.876 22.8461 123.485 22.7077 123.208 22.4307C122.943 22.1537 122.81 21.7744 122.81 21.2927V15.2598H120.155V14.0134H122.81V10.8705H124.237V14.0134H127.127V15.2598H124.237V21.076C124.237 21.4372 124.412 21.6179 124.761 21.6179H126.73V22.8461H124.382ZM132.095 23.099C131.481 23.099 130.921 22.9906 130.415 22.7739C129.91 22.5571 129.512 22.244 129.223 21.8346C128.934 21.4252 128.79 20.9255 128.79 20.3354C128.79 19.7333 128.934 19.2396 129.223 18.8543C129.512 18.4569 129.91 18.1618 130.415 17.9692C130.921 17.7645 131.487 17.6621 132.113 17.6621H135.094V17.0118C135.094 16.3857 134.907 15.892 134.534 15.5307C134.172 15.1694 133.63 14.9888 132.908 14.9888C132.198 14.9888 131.644 15.1634 131.246 15.5126C130.849 15.8498 130.578 16.3074 130.433 16.8854L129.097 16.4519C129.241 15.9582 129.47 15.5126 129.783 15.1152C130.096 14.7058 130.512 14.3807 131.029 14.1399C131.559 13.887 132.191 13.7605 132.926 13.7605C134.058 13.7605 134.937 14.0556 135.563 14.6456C136.189 15.2236 136.502 16.0425 136.502 17.1022V21.094C136.502 21.4553 136.671 21.6359 137.008 21.6359H137.821V22.8461H136.575C136.177 22.8461 135.858 22.7378 135.617 22.521C135.377 22.2922 135.256 21.9912 135.256 21.6179V21.5275H135.039C134.907 21.7563 134.726 21.9972 134.498 22.2501C134.281 22.4909 133.98 22.6896 133.594 22.8461C133.209 23.0147 132.709 23.099 132.095 23.099ZM132.258 21.8707C133.101 21.8707 133.781 21.6239 134.299 21.1302C134.829 20.6244 135.094 19.92 135.094 19.0168V18.8181H132.167C131.601 18.8181 131.132 18.9446 130.759 19.1974C130.397 19.4383 130.217 19.8056 130.217 20.2993C130.217 20.793 130.403 21.1783 130.777 21.4553C131.162 21.7323 131.656 21.8707 132.258 21.8707ZM139.775 22.8461V10.2022H141.202V22.8461H139.775Z" fill="black"/>
<path d="M21.6549 27.0585L22.4124 23.337L26.068 22.6454L30.4812 27.0585L26.068 31.4717L21.6549 27.0585Z" fill="black"/>
<path d="M21.6549 7.53689L22.4124 11.2584L26.068 11.95L30.4812 7.53689L26.068 3.12376L21.6549 7.53689Z" fill="black"/>
<path d="M26.434 20.1576L24.3381 16.9905L26.434 13.9165L32.6751 13.9165V20.1576H26.434Z" fill="black"/>
<path d="M10.863 27.0585L10.1056 23.337L6.44991 22.6454L2.03677 27.0585L6.44991 31.4717L10.863 27.0585Z" fill="black"/>
<path d="M10.863 7.41107L10.1056 11.1326L6.44991 11.8242L2.03677 7.41107L6.44991 2.99793L10.863 7.41107Z" fill="black"/>
<path d="M6.24502 20.1576L8.34091 16.9905L6.24502 13.9165L0.00390209 13.9165V20.1576H6.24502Z" fill="black"/>
<path d="M13.2488 27.4637L16.4159 25.3678L19.4899 27.4637V33.7048H13.2488V27.4637Z" fill="black"/>
<path d="M13.2488 6.83071L16.4159 8.92661L19.4899 6.83071V0.589596H13.2488V6.83071Z" fill="black"/>
<rect x="12.9477" y="13.5346" width="6.79957" height="6.79957" fill="black"/>
</svg>
