<svg width="72" height="21" viewBox="0 0 72 21" fill="none" xmlns="http://www.w3.org/2000/svg">
<path fill-rule="evenodd" clip-rule="evenodd" d="M59.4749 0.280382C56.1031 1.26182 53.6134 4.1824 52.87 8.02906C52.3583 10.677 52.6977 13.6966 53.7674 16.011C54.0282 16.5753 54.7262 17.5662 55.3185 18.2133C57.0705 20.1268 59.1826 21.0052 62.0193 21C64.9182 20.9948 66.8761 20.2113 68.6646 18.341C70.5826 16.3351 71.5094 13.7728 71.5051 10.4881C71.4985 5.31356 68.8182 1.37063 64.5596 0.269964C63.1503 -0.0940964 60.7453 -0.089273 59.4749 0.280382ZM0 2.09567V3.83204H2.90336H5.80672V12.2245V20.617H7.56633H9.32594V12.2245V3.83204H12.2293H15.1327V2.09567V0.359291H7.56633H0V2.09567ZM18.4759 10.4881V20.617H25.4264H32.3768V18.6877V16.7584H27.186H21.9951V14.5428V12.327L26.966 12.2758L31.9369 12.2245L31.9876 10.4399L32.0381 8.65531H27.0167H21.9951V6.34014V4.02497H27.186H32.3768V2.19213V0.359291H25.4264H18.4759V10.4881ZM36.424 10.4881V20.617H38.1804H39.9367L39.984 16.1665L40.0312 11.7158L43.8683 16.1665L47.7054 20.617H49.807C50.9629 20.617 51.9085 20.5412 51.9085 20.4484C51.9085 20.3556 49.926 17.9987 47.5028 15.2111C43.1247 10.1743 43.0992 10.1401 43.4223 9.73669C43.6012 9.51327 45.2422 7.55078 47.0691 5.37549C48.8961 3.20019 50.5887 1.18175 50.8306 0.88985L51.2705 0.359291H49.0675H46.8643L43.4476 4.5455L40.0312 8.73171L39.9836 4.5455L39.9363 0.359291H38.18H36.424V10.4881ZM64.8528 4.07108C66.7538 5.14358 67.9016 7.24479 68.0546 9.93193C68.3278 14.7361 65.6932 17.7881 61.5417 17.4761C59.1731 17.298 57.6526 16.1829 56.714 13.935C55.3199 10.5962 56.1532 6.37931 58.5674 4.55823C59.7425 3.67172 60.5767 3.44213 62.3782 3.50927C63.6714 3.5577 64.1253 3.66072 64.8528 4.07108Z" fill="black"/>
</svg>
